<svg xmlns="http://www.w3.org/2000/svg" viewBox="0 0 232.26 234.51"><defs><style>.cls-1{isolation:isolate;}.cls-2{fill:#c6c6c6;}.cls-3{fill:#683c11;}.cls-4{mix-blend-mode:screen;}.cls-5{fill:#ca9e67;}.cls-6,.cls-7{fill:#2c312f;}.cls-7{opacity:0.6;mix-blend-mode:multiply;}.cls-8{fill:#565b59;}.cls-9{fill:#e2e3e4;}.cls-10,.cls-12{fill:#fff;}.cls-11{fill:#e66225;}.cls-12{font-size:76.45px;font-family:Insaniburger-with-Cheese, Insaniburger with Cheese;}</style></defs><title>icon</title><g class="cls-1"><g id="Layer_1" data-name="Layer 1"><rect class="cls-2" width="232.26" height="232.26" rx="25.81"/><path class="cls-3" d="M216.91,36.46a3,3,0,0,0,1.57-4h0a3,3,0,0,0-4.16-1.14L36.91,122.74a1,1,0,0,0-.16,1h0a1,1,0,0,0,.91.48Z" transform="translate(-11.59 6.02)"/><g class="cls-4"><path class="cls-5" d="M198.1,39.67l-4.25,2.19c.38.64.77,1.35,1.16,2.14s.87,1.8,1.19,2.6l4.29-2.1c-.33-.81-.72-1.69-1.21-2.65C198.88,41.05,198.49,40.32,198.1,39.67Z" transform="translate(-11.59 6.02)"/><path class="cls-5" d="M203.14,43.21l4.28-2.1c-.33-.84-.74-1.74-1.23-2.73-.42-.83-.83-1.57-1.23-2.25l-4.24,2.19c.38.66.79,1.39,1.19,2.21S202.8,42.39,203.14,43.21Z" transform="translate(-11.59 6.02)"/></g><path class="cls-6" d="M127.36,132.44a1.81,1.81,0,0,0,0-.23,1.66,1.66,0,0,0,0-.22V102.77H64.27v29.44c0,6.4,14.13,11.58,31.56,11.58,17,0,30.88-4.95,31.5-11.14h0Z" transform="translate(-11.59 6.02)"/><path class="cls-7" d="M127.36,132V102.77H97.45v41c16.28-.3,29.28-5.12,29.88-11.11h0v-.21a1.81,1.81,0,0,0,0-.23A1.66,1.66,0,0,0,127.36,132Z" transform="translate(-11.59 6.02)"/><path class="cls-8" d="M127.39,102.77c0,6.39-14.13,11.58-31.56,11.58s-31.56-5.19-31.56-11.58S78.4,91.19,95.83,91.19,127.39,96.38,127.39,102.77Z" transform="translate(-11.59 6.02)"/><path class="cls-9" d="M123.47,103.11c0,5.6-12.37,10.13-27.64,10.13s-27.64-4.53-27.64-10.13S80.57,93,95.83,93,123.47,97.51,123.47,103.11Z" transform="translate(-11.59 6.02)"/><path class="cls-10" d="M115.31,100.12c0,3.95-8.72,7.14-19.48,7.14s-19.48-3.19-19.48-7.14S85.07,93,95.83,93,115.31,96.17,115.31,100.12Z" transform="translate(-11.59 6.02)"/><path class="cls-11" d="M102.19,97c-1.48-.69-3-1.3-4.49-2-1.8.73-3.54,1.6-5.25,2.48,1.57,1.17,3.21,2.22,4.87,3.26,1-.68,2-1.34,3-2l2.56-1.53Z" transform="translate(-11.59 6.02)"/><path class="cls-11" d="M108.47,100.61c-1.48-.69-3-1.3-4.49-2-1.8.73-3.54,1.6-5.25,2.48,1.57,1.17,3.21,2.22,4.87,3.26,1-.68,1.94-1.34,3-2l2.56-1.53Z" transform="translate(-11.59 6.02)"/><path class="cls-11" d="M87.81,97c-2.8,1.15-5.53,2.5-8.2,3.87,2.45,1.84,5,3.49,7.61,5.11,1.52-1.06,7.28-3.71,8.61-4.49C95.51,101.35,90.14,98.07,87.81,97Z" transform="translate(-11.59 6.02)"/><path class="cls-11" d="M103.65,105.84c-2.31-1.08-4.69-2-7-3.07-2.8,1.15-5.54,2.5-8.2,3.88,2.44,1.83,5,3.48,7.61,5.1,1.51-1.06,3-2.1,4.61-3,1.33-.8,2.66-1.6,4-2.38C104.32,106.15,104,106,103.65,105.84Z" transform="translate(-11.59 6.02)"/><path class="cls-3" d="M214.46,9a3,3,0,0,0-.15-4.32h0a3,3,0,0,0-4.27.61L83.34,159.49a1,1,0,0,0,.26,1h0a1,1,0,0,0,1,.08Z" transform="translate(-11.59 6.02)"/><g class="cls-4"><path class="cls-5" d="M198.46,19.37l-3,3.7c.6.44,1.24.94,1.91,1.5s1.51,1.32,2.12,1.92l3.11-3.63q-.93-.91-2.16-1.95C199.72,20.33,199.07,19.83,198.46,19.37Z" transform="translate(-11.59 6.02)"/><path class="cls-5" d="M204.48,20.63,207.59,17c-.64-.63-1.37-1.3-2.21-2s-1.39-1.12-2-1.58l-3,3.69c.62.46,1.27,1,2,1.56S203.85,20,204.48,20.63Z" transform="translate(-11.59 6.02)"/></g><text class="cls-12" transform="translate(9.32 218.75)">Sixshi</text></g></g></svg>